<svg xmlns="http://www.w3.org/2000/svg" width="24" height="24" viewBox="0 0 48 48">
  <path fill="#FFC107" d="M43.6 20.5H42V20H24v8h11.3c-1.6 4.7-6 8-11.3 8c-6.9 0-12.5-5.6-12.5-12.5S17.1 11 24 11c3.2 0 6.2 1.2 8.5 3.3l5.7-5.7C34.5 5.1 29.5 3 24 3C12.3 3 3 12.3 3 24s9.3 21 21 21c10.5 0 20-7.7 20-21c0-1.3-.1-2.2-.4-3.5z"/>
  <path fill="#FF3D00" d="M6.3 14.7l6.6 4.8C14.3 15.3 18.8 11 24 11c3.2 0 6.2 1.2 8.5 3.3l5.7-5.7C34.5 5.1 29.5 3 24 3C16.1 3 9.3 7.4 6.3 14.7z"/>
  <path fill="#4CAF50" d="M24 45c5.3 0 10.3-2 14-5.3l-6.5-5.4C29.4 36.3 26.8 37 24 37c-5.2 0-9.6-3.3-11.3-8l-6.6 5.1C9.3 40.6 16.1 45 24 45z"/>
  <path fill="#1976D2" d="M43.6 20.5H42V20H24v8h11.3c-.8 2.3-2.3 4.3-4.3 5.7l6.5 5.4C40.2 35.6 43 30.4 43 24c0-1.3-.1-2.2-.4-3.5z"/>
</svg>
