<svg xmlns="http://www.w3.org/2000/svg" viewBox="0 0 512 320" role="img" aria-label="Infinity logo">
  <defs>
    <linearGradient id="infinity-gradient" x1="0%" y1="0%" x2="100%" y2="0%">
      <stop offset="0%" stop-color="#41ff2d"/>
      <stop offset="100%" stop-color="#17c73e"/>
    </linearGradient>
    <filter id="infinity-glow" x="-25%" y="-40%" width="150%" height="180%" color-interpolation-filters="sRGB">
      <feGaussianBlur stdDeviation="10" result="blur"/>
      <feMerge>
        <feMergeNode in="blur"/>
        <feMergeNode in="SourceGraphic"/>
      </feMerge>
    </filter>
  </defs>
  <path
    d="M128 160c0-53 43-96 96-96 32 0 62 16 80 42l32 44 32-44c18-26 48-42 80-42 53 0 96 43 96 96s-43 96-96 96c-32 0-62-16-80-42l-32-44-32 44c-18 26-48 42-80 42-53 0-96-43-96-96Z"
    fill="none"
    stroke="url(#infinity-gradient)"
    stroke-width="24"
    stroke-linecap="round"
    stroke-linejoin="round"
    filter="url(#infinity-glow)"
  />
  <path
    d="M160 160c0-35 29-64 64-64 21 0 41 11 54 28l56 76 56-76c13-17 33-28 54-28 35 0 64 29 64 64s-29 64-64 64c-21 0-41-11-54-28l-56-76-56 76c-13 17-33 28-54 28-35 0-64-29-64-64Z"
    fill="none"
    stroke="url(#infinity-gradient)"
    stroke-width="18"
    stroke-linecap="round"
    stroke-linejoin="round"
  />
</svg>
